# xmcd
#
# Track frame offsets: 
#        150
#        14305
#        30685
#        46905
#        61285
#        78157
#        93552
#        109135
#        121857
#        136105
#        153402
#        165682
#        180355
#
# Disc length: 2595 seconds
#
# Revision: 21
# Processed by: cddbd v1.5.2PL0 Copyright (c) Steve Scherf et al.
# Submitted via: ExactAudioCopyFreeDBPlugin 1.0
#
DISCID=970a210d
DTITLE=Rod Stewart - Thanks For The Memory... The Great American Songb
DTITLE=ook IV
DYEAR=2005
DGENRE=Pop
TTITLE0=I've Got A Crush On You
TTITLE1=I Wish You Love
TTITLE2=You Send Me
TTITLE3=Long Ago And Far Away
TTITLE4=Makin' Whoopee
TTITLE5=My One And Only Love
TTITLE6=Taking A Chance On Love
TTITLE7=My Funny Valentine
TTITLE8=I've Got My Love To Keep Me Warm
TTITLE9=Nevertheless
TTITLE10=Blue Skies
TTITLE11=Let's Fall In Love
TTITLE12=Thanks For The Memory
EXTD=YEAR: 2005
EXTT0=
EXTT1=
EXTT2=
EXTT3=
EXTT4=
EXTT5=
EXTT6=
EXTT7=
EXTT8=
EXTT9=
EXTT10=
EXTT11=
EXTT12=
PLAYORDER=
